<svg fill="none" height="37" viewBox="0 0 36 37" width="36" xmlns="http://www.w3.org/2000/svg">
    <path
        d="M26.5453 18.7305C26.5312 16.3435 27.6176 14.5444 29.8113 13.2179C28.5844 11.4679 26.7281 10.5053 24.2812 10.3198C21.9645 10.1378 19.4297 11.6639 18.5016 11.6639C17.5207 11.6639 15.2777 10.3828 13.5129 10.3828C9.8707 10.4388 6 13.2739 6 19.042C6 20.7465 6.31289 22.5071 6.93867 24.3201C7.77539 26.7072 10.7918 32.5558 13.9383 32.4613C15.5836 32.4228 16.7473 31.2993 18.8883 31.2993C20.966 31.2993 22.0418 32.4613 23.877 32.4613C27.0516 32.4158 29.7797 27.0992 30.5742 24.7051C26.3168 22.7066 26.5453 18.853 26.5453 18.7305ZM22.8504 8.05529C24.6328 5.94825 24.4711 4.03021 24.4184 3.3407C22.8434 3.4317 21.0223 4.40822 19.9852 5.60874C18.8426 6.89677 18.1711 8.4893 18.3152 10.2848C20.0168 10.4143 21.5707 9.54282 22.8504 8.05529Z"
        fill="#D4D4D5"/>
</svg>
