<svg fill="none" height="44" viewBox="0 0 44 44" width="44" xmlns="http://www.w3.org/2000/svg">
    <g opacity="0.75">
        <path
            d="M38.8438 6.875H5.15625C4.96719 6.875 4.8125 7.02969 4.8125 7.21875V9.96875C4.8125 10.1578 4.96719 10.3125 5.15625 10.3125H38.8438C39.0328 10.3125 39.1875 10.1578 39.1875 9.96875V7.21875C39.1875 7.02969 39.0328 6.875 38.8438 6.875ZM38.8438 33.6875H5.15625C4.96719 33.6875 4.8125 33.8422 4.8125 34.0312V36.7812C4.8125 36.9703 4.96719 37.125 5.15625 37.125H38.8438C39.0328 37.125 39.1875 36.9703 39.1875 36.7812V34.0312C39.1875 33.8422 39.0328 33.6875 38.8438 33.6875ZM38.8438 20.2812H5.15625C4.96719 20.2812 4.8125 20.4359 4.8125 20.625V23.375C4.8125 23.5641 4.96719 23.7188 5.15625 23.7188H38.8438C39.0328 23.7188 39.1875 23.5641 39.1875 23.375V20.625C39.1875 20.4359 39.0328 20.2812 38.8438 20.2812Z"
            fill="white"/>
    </g>
</svg>
