<svg width="36" height="30" viewBox="0 0 36 30" fill="none" xmlns="http://www.w3.org/2000/svg">
<g id="Group">
<path id="Vector" d="M26.7751 20.0398L31.1805 2.79024H36V0.0788574H29.0746L28.036 4.14514L0 4.12508L2.98065 20.0397H26.7751V20.0398ZM27.3437 6.85604L24.6692 17.3284H5.23134L3.26674 6.83882L27.3437 6.85604Z" fill="white"/>
<path id="Vector_2" d="M23.0634 29.9209C25.4543 29.9209 27.3994 27.9758 27.3994 25.5849C27.3994 23.1941 25.4543 21.249 23.0634 21.249H6.72731C4.33647 21.249 2.39133 23.1941 2.39133 25.5849C2.39133 27.9758 4.33643 29.9209 6.72731 29.9209C9.11819 29.9209 11.0633 27.9758 11.0633 25.5849C11.0633 25.0107 10.9508 24.4624 10.7472 23.9604H19.0436C18.8399 24.4624 18.7275 25.0107 18.7275 25.5849C18.7275 27.9758 20.6726 29.9209 23.0634 29.9209ZM8.35187 25.5849C8.35187 26.4808 7.6231 27.2095 6.72731 27.2095C5.83151 27.2095 5.10271 26.4808 5.10271 25.5849C5.10271 24.6892 5.83148 23.9604 6.72731 23.9604C7.6231 23.9604 8.35187 24.6892 8.35187 25.5849ZM24.688 25.5849C24.688 26.4808 23.9593 27.2095 23.0635 27.2095C22.1677 27.2095 21.4389 26.4808 21.4389 25.5849C21.4389 24.6892 22.1677 23.9604 23.0635 23.9604C23.9593 23.9604 24.688 24.6892 24.688 25.5849Z" fill="white"/>
</g>
</svg>
