<svg fill="none" height="37" viewBox="0 0 36 37" width="36" xmlns="http://www.w3.org/2000/svg">
    <path
        d="M32.184 15.5176C32.3685 16.5018 32.469 17.5307 32.469 18.6044C32.469 27.0031 26.823 32.9751 18.2955 32.9751C16.3562 32.9756 14.4359 32.5958 12.6441 31.8572C10.8523 31.1187 9.22431 30.0358 7.85304 28.6706C6.48177 27.3054 5.39414 25.6846 4.65229 23.9008C3.91043 22.117 3.5289 20.2051 3.5295 18.2744C3.5289 16.3437 3.91043 14.4318 4.65229 12.648C5.39414 10.8642 6.48177 9.24334 7.85304 7.87814C9.22431 6.51294 10.8523 5.43012 12.6441 4.69155C14.4359 3.95298 16.3562 3.57314 18.2955 3.57373C22.2825 3.57373 25.614 5.03424 28.17 7.4057L24.0075 11.5498V11.5393C22.458 10.0699 20.4915 9.31571 18.2955 9.31571C13.4235 9.31571 9.4635 13.4135 9.4635 18.2654C9.4635 23.1159 13.4235 27.2226 18.2955 27.2226C22.716 27.2226 25.725 24.7063 26.343 21.2507H18.2955V15.5176H32.1855H32.184Z"
        fill="#D4D4D5"/>
</svg>
